# xmcd CD database file
#
# Track frame offsets:
#	150
#	7950
#	18900
#	56775
#	74153
#	89450
#	112715
#	130949
#	149700
#	173550
#	192039
#	214350
#	225840
#
# Disc length: 3257 seconds
#
# Revision: 0
# Processed by: cddbd v1.5.1PL0 Copyright (c) Steve Scherf et al.
# Submitted via: CDex 1.51
#
DISCID=b00cb70d
DTITLE=Hiroshi Fujiwara - Hiroshi's Kick Back(Private Mix)
DYEAR=2005
DGENRE=Club
TTITLE0=Jack Nitzsche/One Flew Over The Cuckoo's Nest(Ending Theme)
TTITLE1=Bobby Womack/(If You Don't What My Love)Give It Back
TTITLE2=Gary Bartz/I've Known Rivers
TTITLE3=Virginia Astley/From Gardens Where We Feel Secure
TTITLE4=Jackson 5/Ben(Hf Remix #4)
TTITLE5=Marlena Shaw/Feel Like Making Love
TTITLE6=Lonnie Liston Smith/Quiet Moments
TTITLE7=Everything But The Girl/The Language Of Life
TTITLE8=New Composers/La-La-La
TTITLE9=Black Magic/Perfect Angel
TTITLE10=The Durutti Column/Favourite Painting
TTITLE11=Janis Ian/Love Is Blind
TTITLE12=Tim Story/Untitled
EXTD=YEAR: 2005
EXTT0=
EXTT1=
EXTT2=
EXTT3=
EXTT4=
EXTT5=
EXTT6=
EXTT7=
EXTT8=
EXTT9=
EXTT10=
EXTT11=
EXTT12=
PLAYORDER=
